<mxfile host="app.diagrams.net" agent="Mozilla/5.0 (Windows NT 10.0; Win64; x64) AppleWebKit/537.36 (KHTML, like Gecko) Chrome/135.0.0.0 Safari/537.36" version="26.2.10">
  <diagram name="Car" id="uZsSFM7QWZw-cyeiCpEi">
    <mxGraphModel dx="1044" dy="527" grid="1" gridSize="10" guides="1" tooltips="1" connect="1" arrows="1" fold="1" page="1" pageScale="1" pageWidth="827" pageHeight="1169" math="0" shadow="0">
      <root>
        <mxCell id="0" />
        <mxCell id="1" parent="0" />
        <mxCell id="Y5Th7ZMCWnmkvRpqq-5N-1" value="Car" style="ellipse;whiteSpace=wrap;html=1;" vertex="1" parent="1">
          <mxGeometry x="360" y="280" width="60" height="40" as="geometry" />
        </mxCell>
        <mxCell id="Y5Th7ZMCWnmkvRpqq-5N-2" value="Steer" style="ellipse;whiteSpace=wrap;html=1;" vertex="1" parent="1">
          <mxGeometry x="200" y="360" width="60" height="40" as="geometry" />
        </mxCell>
        <mxCell id="Y5Th7ZMCWnmkvRpqq-5N-3" value="Speed" style="ellipse;whiteSpace=wrap;html=1;" vertex="1" parent="1">
          <mxGeometry x="460" y="360" width="60" height="40" as="geometry" />
        </mxCell>
        <mxCell id="Y5Th7ZMCWnmkvRpqq-5N-4" value="" style="endArrow=classic;html=1;rounded=0;exitX=0.5;exitY=1;exitDx=0;exitDy=0;entryX=0.5;entryY=0;entryDx=0;entryDy=0;" edge="1" parent="1" source="Y5Th7ZMCWnmkvRpqq-5N-1" target="Y5Th7ZMCWnmkvRpqq-5N-2">
          <mxGeometry width="50" height="50" relative="1" as="geometry">
            <mxPoint x="100" y="420" as="sourcePoint" />
            <mxPoint x="150" y="370" as="targetPoint" />
          </mxGeometry>
        </mxCell>
        <mxCell id="Y5Th7ZMCWnmkvRpqq-5N-5" value="" style="endArrow=classic;html=1;rounded=0;exitX=0.5;exitY=1;exitDx=0;exitDy=0;entryX=0.5;entryY=0;entryDx=0;entryDy=0;" edge="1" parent="1" source="Y5Th7ZMCWnmkvRpqq-5N-1" target="Y5Th7ZMCWnmkvRpqq-5N-3">
          <mxGeometry width="50" height="50" relative="1" as="geometry">
            <mxPoint x="250" y="500" as="sourcePoint" />
            <mxPoint x="300" y="450" as="targetPoint" />
          </mxGeometry>
        </mxCell>
        <mxCell id="Y5Th7ZMCWnmkvRpqq-5N-6" value="Slow - bump obstacle" style="ellipse;whiteSpace=wrap;html=1;" vertex="1" parent="1">
          <mxGeometry x="380" y="430" width="90" height="70" as="geometry" />
        </mxCell>
        <mxCell id="Y5Th7ZMCWnmkvRpqq-5N-7" value="Fast - boost point" style="ellipse;whiteSpace=wrap;html=1;" vertex="1" parent="1">
          <mxGeometry x="520" y="430" width="90" height="70" as="geometry" />
        </mxCell>
        <mxCell id="Y5Th7ZMCWnmkvRpqq-5N-9" value="" style="endArrow=classic;html=1;rounded=0;exitX=0.5;exitY=1;exitDx=0;exitDy=0;" edge="1" parent="1" source="Y5Th7ZMCWnmkvRpqq-5N-3">
          <mxGeometry width="50" height="50" relative="1" as="geometry">
            <mxPoint x="260" y="540" as="sourcePoint" />
            <mxPoint x="430" y="430" as="targetPoint" />
          </mxGeometry>
        </mxCell>
        <mxCell id="Y5Th7ZMCWnmkvRpqq-5N-10" value="" style="endArrow=classic;html=1;rounded=0;exitX=0.5;exitY=1;exitDx=0;exitDy=0;entryX=0.5;entryY=0;entryDx=0;entryDy=0;" edge="1" parent="1" source="Y5Th7ZMCWnmkvRpqq-5N-3" target="Y5Th7ZMCWnmkvRpqq-5N-7">
          <mxGeometry width="50" height="50" relative="1" as="geometry">
            <mxPoint x="410" y="580" as="sourcePoint" />
            <mxPoint x="460" y="530" as="targetPoint" />
          </mxGeometry>
        </mxCell>
        <mxCell id="Y5Th7ZMCWnmkvRpqq-5N-11" value="Right" style="ellipse;whiteSpace=wrap;html=1;" vertex="1" parent="1">
          <mxGeometry x="160" y="430" width="60" height="40" as="geometry" />
        </mxCell>
        <mxCell id="Y5Th7ZMCWnmkvRpqq-5N-13" value="Left" style="ellipse;whiteSpace=wrap;html=1;" vertex="1" parent="1">
          <mxGeometry x="240" y="430" width="60" height="40" as="geometry" />
        </mxCell>
        <mxCell id="Y5Th7ZMCWnmkvRpqq-5N-14" value="" style="endArrow=classic;html=1;rounded=0;exitX=0.5;exitY=1;exitDx=0;exitDy=0;entryX=0.5;entryY=0;entryDx=0;entryDy=0;" edge="1" parent="1" source="Y5Th7ZMCWnmkvRpqq-5N-2" target="Y5Th7ZMCWnmkvRpqq-5N-11">
          <mxGeometry width="50" height="50" relative="1" as="geometry">
            <mxPoint x="10" y="490" as="sourcePoint" />
            <mxPoint x="60" y="440" as="targetPoint" />
          </mxGeometry>
        </mxCell>
        <mxCell id="Y5Th7ZMCWnmkvRpqq-5N-15" value="" style="endArrow=classic;html=1;rounded=0;exitX=0.5;exitY=1;exitDx=0;exitDy=0;entryX=0.5;entryY=0;entryDx=0;entryDy=0;" edge="1" parent="1" source="Y5Th7ZMCWnmkvRpqq-5N-2" target="Y5Th7ZMCWnmkvRpqq-5N-13">
          <mxGeometry width="50" height="50" relative="1" as="geometry">
            <mxPoint x="120" y="570" as="sourcePoint" />
            <mxPoint x="170" y="520" as="targetPoint" />
          </mxGeometry>
        </mxCell>
        <mxCell id="Y5Th7ZMCWnmkvRpqq-5N-16" value="Up" style="ellipse;whiteSpace=wrap;html=1;" vertex="1" parent="1">
          <mxGeometry x="80" y="430" width="60" height="40" as="geometry" />
        </mxCell>
        <mxCell id="Y5Th7ZMCWnmkvRpqq-5N-17" value="Down" style="ellipse;whiteSpace=wrap;html=1;" vertex="1" parent="1">
          <mxGeometry y="430" width="60" height="40" as="geometry" />
        </mxCell>
        <mxCell id="Y5Th7ZMCWnmkvRpqq-5N-18" value="" style="endArrow=classic;html=1;rounded=0;exitX=0.5;exitY=1;exitDx=0;exitDy=0;entryX=0.5;entryY=0;entryDx=0;entryDy=0;" edge="1" parent="1" source="Y5Th7ZMCWnmkvRpqq-5N-2" target="Y5Th7ZMCWnmkvRpqq-5N-16">
          <mxGeometry width="50" height="50" relative="1" as="geometry">
            <mxPoint x="50" y="380" as="sourcePoint" />
            <mxPoint x="100" y="330" as="targetPoint" />
          </mxGeometry>
        </mxCell>
        <mxCell id="Y5Th7ZMCWnmkvRpqq-5N-19" value="" style="endArrow=classic;html=1;rounded=0;entryX=0.5;entryY=0;entryDx=0;entryDy=0;" edge="1" parent="1" target="Y5Th7ZMCWnmkvRpqq-5N-17">
          <mxGeometry width="50" height="50" relative="1" as="geometry">
            <mxPoint x="230" y="400" as="sourcePoint" />
            <mxPoint x="130" y="340" as="targetPoint" />
          </mxGeometry>
        </mxCell>
        <mxCell id="Y5Th7ZMCWnmkvRpqq-5N-20" value="Normal" style="ellipse;whiteSpace=wrap;html=1;" vertex="1" parent="1">
          <mxGeometry x="660" y="430" width="60" height="40" as="geometry" />
        </mxCell>
        <mxCell id="Y5Th7ZMCWnmkvRpqq-5N-21" value="" style="endArrow=classic;html=1;rounded=0;entryX=0.5;entryY=0;entryDx=0;entryDy=0;" edge="1" parent="1" target="Y5Th7ZMCWnmkvRpqq-5N-20">
          <mxGeometry width="50" height="50" relative="1" as="geometry">
            <mxPoint x="490" y="400" as="sourcePoint" />
            <mxPoint x="440" y="450" as="targetPoint" />
          </mxGeometry>
        </mxCell>
        <mxCell id="Y5Th7ZMCWnmkvRpqq-5N-22" value="Package" style="ellipse;whiteSpace=wrap;html=1;" vertex="1" parent="1">
          <mxGeometry x="110" y="560" width="60" height="40" as="geometry" />
        </mxCell>
        <mxCell id="Y5Th7ZMCWnmkvRpqq-5N-23" value="Color" style="ellipse;whiteSpace=wrap;html=1;" vertex="1" parent="1">
          <mxGeometry x="40" y="640" width="60" height="40" as="geometry" />
        </mxCell>
        <mxCell id="Y5Th7ZMCWnmkvRpqq-5N-25" value="verify (yes-no)" style="ellipse;whiteSpace=wrap;html=1;" vertex="1" parent="1">
          <mxGeometry x="190" y="640" width="90" height="70" as="geometry" />
        </mxCell>
        <mxCell id="Y5Th7ZMCWnmkvRpqq-5N-27" value="" style="endArrow=classic;html=1;rounded=0;exitX=0.5;exitY=1;exitDx=0;exitDy=0;entryX=0.5;entryY=0;entryDx=0;entryDy=0;" edge="1" parent="1" source="Y5Th7ZMCWnmkvRpqq-5N-22" target="Y5Th7ZMCWnmkvRpqq-5N-23">
          <mxGeometry width="50" height="50" relative="1" as="geometry">
            <mxPoint x="-30" y="620" as="sourcePoint" />
            <mxPoint x="20" y="570" as="targetPoint" />
          </mxGeometry>
        </mxCell>
        <mxCell id="Y5Th7ZMCWnmkvRpqq-5N-28" value="" style="endArrow=classic;html=1;rounded=0;entryX=0.5;entryY=0;entryDx=0;entryDy=0;" edge="1" parent="1" target="Y5Th7ZMCWnmkvRpqq-5N-25">
          <mxGeometry width="50" height="50" relative="1" as="geometry">
            <mxPoint x="140" y="600" as="sourcePoint" />
            <mxPoint x="30" y="580" as="targetPoint" />
          </mxGeometry>
        </mxCell>
        <mxCell id="Y5Th7ZMCWnmkvRpqq-5N-34" value="Customer" style="ellipse;whiteSpace=wrap;html=1;" vertex="1" parent="1">
          <mxGeometry x="470" y="560" width="60" height="40" as="geometry" />
        </mxCell>
        <mxCell id="Y5Th7ZMCWnmkvRpqq-5N-35" value="Color" style="ellipse;whiteSpace=wrap;html=1;" vertex="1" parent="1">
          <mxGeometry x="400" y="640" width="60" height="40" as="geometry" />
        </mxCell>
        <mxCell id="Y5Th7ZMCWnmkvRpqq-5N-36" value="verify (yes-no)" style="ellipse;whiteSpace=wrap;html=1;" vertex="1" parent="1">
          <mxGeometry x="550" y="640" width="90" height="70" as="geometry" />
        </mxCell>
        <mxCell id="Y5Th7ZMCWnmkvRpqq-5N-37" value="" style="endArrow=classic;html=1;rounded=0;exitX=0.5;exitY=1;exitDx=0;exitDy=0;entryX=0.5;entryY=0;entryDx=0;entryDy=0;" edge="1" parent="1" source="Y5Th7ZMCWnmkvRpqq-5N-34" target="Y5Th7ZMCWnmkvRpqq-5N-35">
          <mxGeometry width="50" height="50" relative="1" as="geometry">
            <mxPoint x="330" y="620" as="sourcePoint" />
            <mxPoint x="380" y="570" as="targetPoint" />
          </mxGeometry>
        </mxCell>
        <mxCell id="Y5Th7ZMCWnmkvRpqq-5N-38" value="" style="endArrow=classic;html=1;rounded=0;entryX=0.5;entryY=0;entryDx=0;entryDy=0;" edge="1" parent="1" target="Y5Th7ZMCWnmkvRpqq-5N-36">
          <mxGeometry width="50" height="50" relative="1" as="geometry">
            <mxPoint x="500" y="600" as="sourcePoint" />
            <mxPoint x="390" y="580" as="targetPoint" />
          </mxGeometry>
        </mxCell>
        <mxCell id="Y5Th7ZMCWnmkvRpqq-5N-39" value="Camera" style="ellipse;whiteSpace=wrap;html=1;" vertex="1" parent="1">
          <mxGeometry x="800" y="360" width="60" height="40" as="geometry" />
        </mxCell>
        <mxCell id="Y5Th7ZMCWnmkvRpqq-5N-40" value="" style="endArrow=classic;html=1;rounded=0;entryX=0.5;entryY=0;entryDx=0;entryDy=0;" edge="1" parent="1" target="Y5Th7ZMCWnmkvRpqq-5N-39">
          <mxGeometry width="50" height="50" relative="1" as="geometry">
            <mxPoint x="390" y="320" as="sourcePoint" />
            <mxPoint x="580" y="260" as="targetPoint" />
          </mxGeometry>
        </mxCell>
        <mxCell id="Y5Th7ZMCWnmkvRpqq-5N-42" value="Color (after delivery" style="ellipse;whiteSpace=wrap;html=1;" vertex="1" parent="1">
          <mxGeometry x="990" y="360" width="140" height="80" as="geometry" />
        </mxCell>
        <mxCell id="Y5Th7ZMCWnmkvRpqq-5N-43" value="" style="endArrow=classic;html=1;rounded=0;exitX=0.5;exitY=1;exitDx=0;exitDy=0;entryX=0.5;entryY=0;entryDx=0;entryDy=0;" edge="1" parent="1" source="Y5Th7ZMCWnmkvRpqq-5N-1" target="Y5Th7ZMCWnmkvRpqq-5N-42">
          <mxGeometry width="50" height="50" relative="1" as="geometry">
            <mxPoint x="740" y="260" as="sourcePoint" />
            <mxPoint x="790" y="210" as="targetPoint" />
          </mxGeometry>
        </mxCell>
      </root>
    </mxGraphModel>
  </diagram>
</mxfile>
